<mxfile host="app.diagrams.net" modified="2020-11-30T05:48:24.003Z" agent="5.0 (Macintosh; Intel Mac OS X 10_15_7) AppleWebKit/605.1.15 (KHTML, like Gecko) Version/14.0 Safari/605.1.15" etag="dNmZAA0XFPeTXOL8tZv7" version="13.10.4" type="github">
  <diagram id="_xsD8yIMcL4vi962Z9AY" name="Page-1">
    <mxGraphModel dx="2066" dy="1177" grid="1" gridSize="10" guides="1" tooltips="1" connect="1" arrows="1" fold="1" page="1" pageScale="1" pageWidth="850" pageHeight="1100" math="0" shadow="0">
      <root>
        <mxCell id="0" />
        <mxCell id="1" parent="0" />
        <mxCell id="PWQwMoa9jacEfLHWld4z-1" value="Test Env Pool" style="swimlane;html=1;childLayout=stackLayout;resizeParent=1;resizeParentMax=0;horizontal=1;startSize=20;horizontalStack=0;" vertex="1" parent="1">
          <mxGeometry x="75" y="310" width="350" height="380" as="geometry">
            <mxRectangle x="75" y="310" width="60" height="20" as="alternateBounds" />
          </mxGeometry>
        </mxCell>
        <mxCell id="PWQwMoa9jacEfLHWld4z-2" value="Container1" style="swimlane;html=1;startSize=20;horizontal=0;" vertex="1" parent="PWQwMoa9jacEfLHWld4z-1">
          <mxGeometry y="20" width="350" height="120" as="geometry" />
        </mxCell>
        <mxCell id="PWQwMoa9jacEfLHWld4z-5" value="Jenkins Agent" style="ellipse;whiteSpace=wrap;html=1;" vertex="1" parent="PWQwMoa9jacEfLHWld4z-2">
          <mxGeometry x="255" y="30" width="75" height="60" as="geometry" />
        </mxCell>
        <mxCell id="PWQwMoa9jacEfLHWld4z-6" value="&lt;ul&gt;&lt;li&gt;&lt;span style=&quot;font-size: 12px&quot;&gt;Test Code&lt;/span&gt;&lt;br&gt;&lt;/li&gt;&lt;li&gt;&lt;span style=&quot;font-size: 12px&quot;&gt;Test APK Build&lt;/span&gt;&lt;br&gt;&lt;/li&gt;&lt;li&gt;&lt;span style=&quot;font-size: 12px&quot;&gt;Test Process Controller&lt;/span&gt;&lt;br&gt;&lt;/li&gt;&lt;/ul&gt;" style="ellipse;whiteSpace=wrap;html=1;align=left;" vertex="1" parent="PWQwMoa9jacEfLHWld4z-2">
          <mxGeometry x="35" y="15" width="205" height="90" as="geometry" />
        </mxCell>
        <mxCell id="PWQwMoa9jacEfLHWld4z-3" value="Container 2" style="swimlane;html=1;startSize=20;horizontal=0;" vertex="1" parent="PWQwMoa9jacEfLHWld4z-1">
          <mxGeometry y="140" width="350" height="120" as="geometry" />
        </mxCell>
        <mxCell id="PWQwMoa9jacEfLHWld4z-7" value="Jenkins Agent" style="ellipse;whiteSpace=wrap;html=1;" vertex="1" parent="PWQwMoa9jacEfLHWld4z-3">
          <mxGeometry x="255" y="30" width="75" height="60" as="geometry" />
        </mxCell>
        <mxCell id="PWQwMoa9jacEfLHWld4z-8" value="&lt;ul&gt;&lt;li&gt;&lt;span style=&quot;font-size: 12px&quot;&gt;Test Code&lt;/span&gt;&lt;br&gt;&lt;/li&gt;&lt;li&gt;&lt;span style=&quot;font-size: 12px&quot;&gt;Test APK Build&lt;/span&gt;&lt;br&gt;&lt;/li&gt;&lt;li&gt;&lt;span style=&quot;font-size: 12px&quot;&gt;Test Process Controller&lt;/span&gt;&lt;br&gt;&lt;/li&gt;&lt;/ul&gt;" style="ellipse;whiteSpace=wrap;html=1;align=left;" vertex="1" parent="PWQwMoa9jacEfLHWld4z-3">
          <mxGeometry x="35" y="15" width="205" height="90" as="geometry" />
        </mxCell>
        <mxCell id="PWQwMoa9jacEfLHWld4z-4" value="Container 3" style="swimlane;html=1;startSize=20;horizontal=0;" vertex="1" parent="PWQwMoa9jacEfLHWld4z-1">
          <mxGeometry y="260" width="350" height="120" as="geometry" />
        </mxCell>
        <mxCell id="PWQwMoa9jacEfLHWld4z-9" value="Jenkins Agent" style="ellipse;whiteSpace=wrap;html=1;" vertex="1" parent="PWQwMoa9jacEfLHWld4z-4">
          <mxGeometry x="255" y="30" width="75" height="60" as="geometry" />
        </mxCell>
        <mxCell id="PWQwMoa9jacEfLHWld4z-10" value="&lt;ul&gt;&lt;li&gt;&lt;span style=&quot;font-size: 12px&quot;&gt;Test Code&lt;/span&gt;&lt;br&gt;&lt;/li&gt;&lt;li&gt;&lt;span style=&quot;font-size: 12px&quot;&gt;Test APK Build&lt;/span&gt;&lt;br&gt;&lt;/li&gt;&lt;li&gt;&lt;span style=&quot;font-size: 12px&quot;&gt;Test Process Controller&lt;/span&gt;&lt;br&gt;&lt;/li&gt;&lt;/ul&gt;" style="ellipse;whiteSpace=wrap;html=1;align=left;" vertex="1" parent="PWQwMoa9jacEfLHWld4z-4">
          <mxGeometry x="35" y="15" width="205" height="90" as="geometry" />
        </mxCell>
        <mxCell id="PWQwMoa9jacEfLHWld4z-11" value="Android Emulator Pool" style="swimlane;html=1;childLayout=stackLayout;resizeParent=1;resizeParentMax=0;horizontal=1;startSize=20;horizontalStack=0;" vertex="1" parent="1">
          <mxGeometry x="610" y="310" width="360" height="380" as="geometry" />
        </mxCell>
        <mxCell id="PWQwMoa9jacEfLHWld4z-12" value="Container 1" style="swimlane;html=1;startSize=20;horizontal=0;" vertex="1" parent="PWQwMoa9jacEfLHWld4z-11">
          <mxGeometry y="20" width="360" height="120" as="geometry" />
        </mxCell>
        <mxCell id="PWQwMoa9jacEfLHWld4z-13" value="Container 2&lt;br&gt;" style="swimlane;html=1;startSize=20;horizontal=0;" vertex="1" parent="PWQwMoa9jacEfLHWld4z-11">
          <mxGeometry y="140" width="360" height="120" as="geometry" />
        </mxCell>
        <mxCell id="PWQwMoa9jacEfLHWld4z-19" value="Android Emulator" style="ellipse;whiteSpace=wrap;html=1;" vertex="1" parent="PWQwMoa9jacEfLHWld4z-13">
          <mxGeometry x="50" y="25" width="280" height="80" as="geometry" />
        </mxCell>
        <mxCell id="PWQwMoa9jacEfLHWld4z-14" value="Container 3" style="swimlane;html=1;startSize=20;horizontal=0;" vertex="1" parent="PWQwMoa9jacEfLHWld4z-11">
          <mxGeometry y="260" width="360" height="120" as="geometry" />
        </mxCell>
        <mxCell id="PWQwMoa9jacEfLHWld4z-20" value="Android Emulator" style="ellipse;whiteSpace=wrap;html=1;" vertex="1" parent="PWQwMoa9jacEfLHWld4z-14">
          <mxGeometry x="50" y="20" width="280" height="80" as="geometry" />
        </mxCell>
        <mxCell id="PWQwMoa9jacEfLHWld4z-18" value="Android Emulator" style="ellipse;whiteSpace=wrap;html=1;" vertex="1" parent="1">
          <mxGeometry x="660" y="350" width="280" height="80" as="geometry" />
        </mxCell>
        <mxCell id="PWQwMoa9jacEfLHWld4z-21" value="ADB" style="shape=doubleArrow;whiteSpace=wrap;html=1;" vertex="1" parent="1">
          <mxGeometry x="470" y="480" width="100" height="60" as="geometry" />
        </mxCell>
      </root>
    </mxGraphModel>
  </diagram>
</mxfile>
